#!OML:ASF I:\Random Stuff\random\construction\7_22_03\Session 2\subj1.ASF
:FULLY-SPECIFIED
:DEGREES
996
root -7.2691 17.7493 -1.53337 -98.8453 85.5111 -111.183
lowerback 3.37321 0.436004 -4.00473
upperback -0.645519 0.391633 -1.41187
thorax -2.57398 0.252113 0.770521
lowerneck -16.9572 8.72281 11.1691
upperneck 43.8567 10.861 3.85747
head 20.7543 7.20327 2.65807
rclavicle -1.19271e-015 9.54166e-015
rhumerus -33.9516 0.610972 -78.897
rradius 49.9278
rwrist 5.89907
rhand -34.017 25.0931
rfingers 7.12502
rthumb -7.19595 -4.76453
lclavicle -1.19271e-015 9.54166e-015
lhumerus -18.5507 8.84722 66.7187
lradius 39.5929
lwrist -6.6793
lhand -34.7052 57.1944
lfingers 7.12502
lthumb -7.86022 87.0283
rfemur -12.9127 16.9882 19.0717
rtibia 10.5144
rfoot -6.93348 -15.502
rtoes -21.6759
lfemur -23.9233 -9.66636 -10.9778
ltibia 27.6528
lfoot -15.2567 15.1268
ltoes -27.1601
997
root -7.26463 17.7492 -1.56244 -96.541 85.5549 -108.881
lowerback 3.377 0.509166 -4.12934
upperback -0.681802 0.481137 -1.56771
thorax -2.6173 0.299682 0.674384
lowerneck -16.9343 8.62937 11.1338
upperneck 43.8842 10.7676 3.80544
head 20.7631 7.15948 2.6176
rclavicle -7.95139e-015 -3.33958e-014
rhumerus -34.1142 0.426556 -78.9825
rradius 49.8371
rwrist 6.0909
rhand -33.8457 25.3804
rfingers 7.12502
rthumb -7.03064 -4.48281
lclavicle -7.95139e-015 -3.33958e-014
lhumerus -18.707 8.90709 66.6628
lradius 40.1042
lwrist -7.05359
lhand -34.6197 57.1376
lfingers 7.12502
lthumb -7.77771 86.9745
rfemur -12.8194 17.552 18.8976
rtibia 10.3056
rfoot -6.7658 -15.8743
rtoes -21.5215
lfemur -23.8994 -9.50899 -11.0935
ltibia 27.7399
lfoot -15.4393 15.0284
ltoes -26.3585
998
root -7.2602 17.7505 -1.59158 -94.2206 85.5878 -106.576
lowerback 3.37037 0.563317 -4.2337
upperback -0.7204 0.546788 -1.71384
thorax -2.65591 0.335098 0.57823
lowerneck -16.8327 8.61747 11.2199
upperneck 43.8494 10.8136 3.63966
head 20.7371 7.17038 2.52199
rclavicle -3.97569e-016 0
rhumerus -34.2644 0.346731 -79.0874
rradius 49.7747
rwrist 6.19366
rhand -33.823 26.0247
rfingers 7.12502
rthumb -7.0087 -3.8393
lclavicle -3.97569e-016 0
lhumerus -18.9945 9.00414 66.5761
lradius 40.9944
lwrist -7.47374
lhand -34.2359 57.0288
lfingers 7.12502
lthumb -7.40726 86.8791
rfemur -12.7346 17.7181 18.7787
rtibia 10.0873
rfoot -6.72827 -15.8752
rtoes -21.589
lfemur -23.9078 -9.28779 -11.2165
ltibia 27.8447
lfoot -15.5502 14.9209
ltoes -26.0468
999
root -7.25644 17.751 -1.61838 -92.4436 85.5615 -104.792
lowerback 3.42905 0.57734 -4.33645
upperback -0.752324 0.555861 -1.80461
thorax -2.72255 0.342816 0.540682
lowerneck -16.801 8.6181 11.2526
upperneck 43.8342 10.8854 3.47518
head 20.7399 7.17932 2.44819
rclavicle 3.57812e-015 3.18055e-015
rhumerus -34.355 0.393507 -79.2245
rradius 49.633
rwrist 6.25768
rhand -34.0713 26.871
rfingers 7.12502
rthumb -7.24835 -2.98488
lclavicle 3.57812e-015 3.18055e-015
lhumerus -19.4261 9.15585 66.5052
lradius 42.2374
lwrist -8.01172
lhand -33.8176 57.0169
lfingers 7.12502
lthumb -7.00351 86.8811
rfemur -12.5958 17.6295 18.7925
rtibia 9.868
rfoot -6.71814 -15.6781
rtoes -21.838
lfemur -23.9287 -8.98861 -11.3032
ltibia 27.9637
lfoot -15.5572 14.7649
ltoes -26.3033
1000
root -7.25426 17.75 -1.64484 -91.2253 85.5204 -103.56
lowerback 3.50208 0.589435 -4.42135
upperback -0.771998 0.56267 -1.87398
thorax -2.78456 0.348945 0.515226
lowerneck -16.8431 8.61246 11.141
upperneck 43.8406 10.9144 3.4794
head 20.7434 7.17124 2.47687
rclavicle 1.07344e-014 2.06736e-014
rhumerus -34.4003 0.471705 -79.3146
rradius 49.4459
rwrist 6.28626
rhand -34.4617 27.6864
rfingers 7.12502
rthumb -7.62523 -2.15611
lclavicle 1.07344e-014 2.06736e-014
lhumerus -19.9257 9.14959 66.4853
lradius 43.6648
lwrist -8.59139
lhand -33.7663 57.811
lfingers 7.12502
lthumb -6.95398 87.6768
rfemur -12.4402 17.5005 18.8232
rtibia 9.63929
rfoot -6.65348 -15.458
rtoes -22.0459
lfemur -23.9567 -8.67276 -11.3894
ltibia 28.0946
lfoot -15.6314 14.4999
ltoes -26.1697
1001
root -7.25218 17.7477 -1.67207 -90.182 85.5199 -102.491
lowerback 3.55662 0.636113 -4.49503
upperback -0.786707 0.616957 -1.97138
thorax -2.83261 0.378227 0.451924
lowerneck -16.8442 8.60571 11.0408
upperneck 43.8237 10.9204 3.53617
head 20.7136 7.166 2.51909
rclavicle 3.18055e-015 2.22639e-014
rhumerus -34.5072 0.442978 -79.3388
rradius 49.3202
rwrist 6.30521
rhand -34.8581 28.6855
rfingers 7.12502
rthumb -8.00777 -1.14281
lclavicle 3.18055e-015 2.22639e-014
lhumerus -20.3592 8.93489 66.4992
lradius 45.0487
lwrist -9.17072
lhand -33.8741 59.2452
lfingers 7.12502
lthumb -7.05807 89.1075
rfemur -12.2947 17.3532 18.7799
rtibia 9.41781
rfoot -6.57725 -15.247
rtoes -22.2571
lfemur -23.9701 -8.38099 -11.5275
ltibia 28.2346
lfoot -15.7477 14.2058
ltoes -25.7985
1002
root -7.24995 17.7452 -1.69934 -89.4477 85.5066 -101.743
lowerback 3.57167 0.661731 -4.57002
upperback -0.800719 0.645821 -2.04505
thorax -2.85689 0.394538 0.415722
lowerneck -16.8202 8.59348 10.9826
upperneck 43.8448 10.9422 3.53286
head 20.7149 7.16653 2.53147
rclavicle -3.97569e-016 3.18055e-015
rhumerus -34.6438 0.359969 -79.3511
rradius 49.2294
rwrist 6.48546
rhand -35.1974 29.6235
rfingers 7.12502
rthumb -8.33531 -0.192076
lclavicle -3.97569e-016 3.18055e-015
lhumerus -20.7584 8.84229 66.4958
lradius 46.3202
lwrist -9.71379
lhand -33.7793 60.2802
lfingers 7.12502
lthumb -6.96649 -90.1456
rfemur -12.1897 17.1787 18.7355
rtibia 9.2291
rfoot -6.49773 -15.0713
rtoes -22.6757
lfemur -24.0147 -8.08591 -11.6575
ltibia 28.3761
lfoot -15.7575 13.9549
ltoes -25.6459
1003
root -7.24916 17.7454 -1.72711 -89.0035 85.4533 -101.301
lowerback 3.55932 0.669945 -4.6187
upperback -0.794654 0.655587 -2.07422
thorax -2.84437 0.400016 0.412418
lowerneck -16.8708 8.56261 10.822
upperneck 43.8979 10.9454 3.56584
head 20.7433 7.14641 2.58152
rclavicle -3.18055e-015 -1.27222e-014
rhumerus -34.6906 0.313617 -79.3244
rradius 49.1228
rwrist 6.73811
rhand -35.3077 30.1985
rfingers 7.12502
rthumb -8.44174 0.387202
lclavicle -3.18055e-015 -1.27222e-014
lhumerus -21.0989 8.88408 66.5217
lradius 47.457
lwrist -10.1874
lhand -33.4372 60.998
lfingers 7.12502
lthumb -6.63628 -90.874
rfemur -12.0997 16.981 18.7267
rtibia 9.04743
rfoot -6.42697 -14.8617
rtoes -22.9255
lfemur -24.0976 -7.69217 -11.7661
ltibia 28.5207
lfoot -15.735 13.6359
ltoes -25.8661
1004
root -7.24993 17.7453 -1.75428 -88.986 85.3916 -101.278
lowerback 3.5588 0.696584 -4.64112
upperback -0.768875 0.691095 -2.10228
thorax -2.81886 0.417339 0.394129
lowerneck -16.9589 8.49273 10.6326
upperneck 43.9323 10.8906 3.58558
head 20.7653 7.09707 2.61692
rclavicle 2.38542e-015 4.77083e-015
rhumerus -34.6762 0.252135 -79.2731
rradius 48.9992
rwrist 6.87721
rhand -35.1968 30.399
rfingers 7.12502
rthumb -8.33472 0.583471
lclavicle 2.38542e-015 4.77083e-015
lhumerus -21.2957 8.84273 66.5904
lradius 48.3777
lwrist -10.6462
lhand -32.8382 61.4942
lfingers 7.12502
lthumb -6.058 -91.3876
rfemur -12.0025 16.7502 18.7268
rtibia 8.88045
rfoot -6.37801 -14.6491
rtoes -22.9736
lfemur -24.1816 -7.22639 -11.8769
ltibia 28.653
lfoot -15.7942 13.1498
ltoes -25.871
1005
root -7.25295 17.7429 -1.78038 -89.9956 85.3023 -102.289
lowerback 3.59668 0.741886 -4.58298
upperback -0.773136 0.750806 -2.15833
thorax -2.84548 0.446471 0.299713
lowerneck -16.9777 8.36904 10.5338
upperneck 43.9363 10.749 3.55099
head 20.7592 7.02651 2.58426
rclavicle 4.77083e-015 -1.74931e-014
rhumerus -34.7679 -0.00220521 -79.2128
rradius 48.906
rwrist 7.03819
rhand -35.058 30.398
rfingers 7.12502
rthumb -8.20074 0.577151
lclavicle 4.77083e-015 -1.74931e-014
lhumerus -21.3861 8.66404 66.6814
lradius 49.1316
lwrist -11.1368
lhand -32.0805 61.0954
lfingers 7.12502
lthumb -5.3265 -91.0084
rfemur -11.9463 16.4382 18.7688
rtibia 8.78883
rfoot -6.32153 -14.4741
rtoes -23.4302
lfemur -24.2955 -6.89486 -11.9322
ltibia 28.7567
lfoot -15.8214 12.6558
ltoes -25.1821
1006
root -7.25575 17.7436 -1.80458 -91.2 85.2026 -103.462
lowerback 3.6809 0.788231 -4.52854
upperback -0.801236 0.807703 -2.21472
thorax -2.92257 0.475327 0.206072
lowerneck -16.9904 8.21862 10.4783
upperneck 44.0214 10.5692 3.51864
head 20.8117 6.95219 2.54656
rclavicle -5.96354e-015 -3.97569e-014
rhumerus -34.9563 -0.311624 -79.1624
rradius 48.8206
rwrist 7.21835
rhand -35.0649 30.5632
rfingers 7.12502
rthumb -8.20743 0.742586
lclavicle -5.96354e-015 -3.97569e-014
lhumerus -21.4804 8.3575 66.8076
lradius 49.7682
lwrist -11.2843
lhand -32.0532 61.4277
lfingers 7.12502
lthumb -5.30014 -91.3414
rfemur -11.8661 16.1112 18.8349
rtibia 8.76018
rfoot -6.36464 -14.2779
rtoes -23.692
lfemur -24.3635 -6.70231 -11.961
ltibia 28.8445
lfoot -15.8137 12.3107
ltoes -24.6202
1007
root -7.25671 17.7459 -1.82728 -92.2064 85.1651 -104.41
lowerback 3.73012 0.805815 -4.59863
upperback -0.794182 0.824988 -2.24754
thorax -2.9443 0.485549 0.20953
lowerneck -17.0746 8.12063 10.3563
upperneck 44.1812 10.4637 3.57023
head 20.9255 6.90397 2.59086
rclavicle -7.95139e-015 0
rhumerus -35.0356 -0.415352 -79.1521
rradius 48.6317
rwrist 7.25184
rhand -35.2709 30.8511
rfingers 7.12502
rthumb -8.40621 1.03839
lclavicle -7.95139e-015 0
lhumerus -21.5624 8.20218 66.8979
lradius 50.2311
lwrist -11.5401
lhand -31.9795 61.2829
lfingers 7.12502
lthumb -5.22892 -91.1984
rfemur -11.7304 15.8008 18.8377
rtibia 8.71322
rfoot -6.5139 -14.0542
rtoes -23.4698
lfemur -24.3737 -6.5527 -12.065
ltibia 28.9351
lfoot -15.8125 12.0777
ltoes -24.5931
1008
root -7.2602 17.7453 -1.85165 -94.0757 85.1386 -106.236
lowerback 3.71562 0.789349 -4.66673
upperback -0.743863 0.803434 -2.26284
thorax -2.88409 0.474613 0.233959
lowerneck -17.1146 8.05289 10.1619
upperneck 44.2444 10.3993 3.66335
head 20.9472 6.86325 2.66159
rclavicle -5.1684e-015 3.18055e-014
rhumerus -35.0068 -0.428842 -79.1318
rradius 48.4015
rwrist 7.22501
rhand -35.4739 30.9435
rfingers 7.12502
rthumb -8.60213 1.13873
lclavicle -5.1684e-015 3.18055e-014
lhumerus -21.555 8.1001 67.0085
lradius 50.5341
lwrist -11.9386
lhand -31.7954 61.0074
lfingers 7.12502
lthumb -5.05121 -90.9272
rfemur -11.6184 15.4123 18.8063
rtibia 8.64801
rfoot -6.60611 -13.8359
rtoes -23.3953
lfemur -24.4274 -6.44316 -12.2026
ltibia 29.0204
lfoot -15.7104 11.8524
ltoes -24.9307
1009
root -7.26632 17.7445 -1.87697 -96.2748 85.0263 -108.398
lowerback 3.68835 0.780833 -4.62829
upperback -0.684372 0.798503 -2.24679
thorax -2.80664 0.46952 0.230578
lowerneck -17.0746 7.94598 9.96938
upperneck 44.238 10.3037 3.68065
head 20.9024 6.80266 2.6733
rclavicle -4.37326e-015 -2.38542e-014
rhumerus -35.0549 -0.486448 -79.0487
rradius 48.317
rwrist 7.19097
rhand -35.5052 30.749
rfingers 7.12502
rthumb -8.63234 0.945471
lclavicle -4.37326e-015 -2.38542e-014
lhumerus -21.4698 7.87593 67.1859
lradius 50.7609
lwrist -12.3986
lhand -31.4169 60.676
lfingers 7.12502
lthumb -4.68569 -90.6042
rfemur -11.5475 14.9795 18.8271
rtibia 8.59878
rfoot -6.61195 -13.6282
rtoes -23.4949
lfemur -24.5099 -6.19521 -12.2814
ltibia 29.0986
lfoot -15.6057 11.424
ltoes -25.1605
1010
root -7.27241 17.7452 -1.90115 -98.0679 84.8947 -110.154
lowerback 3.68532 0.80179 -4.55891
upperback -0.665127 0.83057 -2.22491
thorax -2.7855 0.483645 0.212753
lowerneck -17.0758 7.82106 9.75287
upperneck 44.3729 10.1869 3.77003
head 20.9602 6.7436 2.73985
rclavicle -1.11319e-014 -1.43125e-014
rhumerus -35.2656 -0.558884 -78.9442
rradius 48.3689
rwrist 7.18613
rhand -35.3628 30.2408
rfingers 7.12502
rthumb -8.49495 0.431644
lclavicle -1.11319e-014 -1.43125e-014
lhumerus -21.4059 7.60244 67.3784
lradius 50.938
lwrist -13.0813
lhand -30.94 60.3946
lfingers 7.12502
lthumb -4.22521 -90.3324
rfemur -11.4822 14.5698 18.8534
rtibia 8.54568
rfoot -6.5457 -13.4101
rtoes -23.6882
lfemur -24.5839 -5.88906 -12.3421
ltibia 29.1716
lfoot -15.5849 10.927
ltoes -24.8655
